<svg xmlns="http://www.w3.org/2000/svg" width="24" height="24" viewBox="0 0 24 24"><title>Bluesky</title><path d="M5.54 3.31c2.61 1.96 5.43 5.94 6.46 8.08 1.03-2.14 3.84-6.11 6.46-8.08 1.89-1.42 4.94-2.51 4.94.97 0 .7-.4 5.85-.63 6.69-.81 2.91-3.78 3.65-6.42 3.2 4.61.78 5.78 3.38 3.25 5.98-4.81 4.94-6.92-1.24-7.45-2.82-.1-.29-.15-.43-.15-.31 0-.12-.05.02-.15.31-.54 1.58-2.64 7.76-7.45 2.82-2.53-2.6-1.36-5.2 3.25-5.98-2.64.45-5.6-.29-6.42-3.2C1 10.13.6 4.98.6 4.28.6.8 3.66 1.9 5.54 3.31z" fill="none" stroke="currentColor" stroke-linejoin="round" stroke-width="2"/></svg>